<svg width="27" height="28" viewBox="0 0 27 28" fill="none" xmlns="http://www.w3.org/2000/svg">
<g filter="url(#filter0_d_1075_31)">
<path d="M21.3674 9.34513L19.5233 16.2274L21.0527 16.6372C21.475 16.7503 21.7256 17.1844 21.6125 17.6067C21.4993 18.0291 21.0652 18.2797 20.6429 18.1665L15.6453 16.8274C15.1122 18.0747 13.7296 18.7729 12.3813 18.4116C11.0329 18.0503 10.1846 16.7544 10.3466 15.4077L5.34904 14.0686C4.92671 13.9554 4.67608 13.5213 4.78925 13.099C4.90241 12.6767 5.33651 12.426 5.75883 12.5392L7.28822 12.949L9.1323 6.06676C10.0376 2.68814 13.5104 0.683117 16.889 1.58842C20.2676 2.49372 22.2727 5.96651 21.3674 9.34513Z" fill="url(#paint0_linear_1075_31)"/>
<path d="M21.3674 9.34513L19.5233 16.2274L21.0527 16.6372C21.475 16.7503 21.7256 17.1844 21.6125 17.6067C21.4993 18.0291 21.0652 18.2797 20.6429 18.1665L15.6453 16.8274C15.1122 18.0747 13.7296 18.7729 12.3813 18.4116C11.0329 18.0503 10.1846 16.7544 10.3466 15.4077L5.34904 14.0686C4.92671 13.9554 4.67608 13.5213 4.78925 13.099C4.90241 12.6767 5.33651 12.426 5.75883 12.5392L7.28822 12.949L9.1323 6.06676C10.0376 2.68814 13.5104 0.683117 16.889 1.58842C20.2676 2.49372 22.2727 5.96651 21.3674 9.34513Z" stroke="black" stroke-linecap="round" stroke-linejoin="round"/>
</g>
<defs>
<filter id="filter0_d_1075_31" x="0.261963" y="0.870911" width="25.8778" height="26.136" filterUnits="userSpaceOnUse" color-interpolation-filters="sRGB">
<feFlood flood-opacity="0" result="BackgroundImageFix"/>
<feColorMatrix in="SourceAlpha" type="matrix" values="0 0 0 0 0 0 0 0 0 0 0 0 0 0 0 0 0 0 127 0" result="hardAlpha"/>
<feOffset dy="4"/>
<feGaussianBlur stdDeviation="2"/>
<feComposite in2="hardAlpha" operator="out"/>
<feColorMatrix type="matrix" values="0 0 0 0 0 0 0 0 0 0 0 0 0 0 0 0 0 0 0.25 0"/>
<feBlend mode="normal" in2="BackgroundImageFix" result="effect1_dropShadow_1075_31"/>
<feBlend mode="normal" in="SourceGraphic" in2="effect1_dropShadow_1075_31" result="shape"/>
</filter>
<linearGradient id="paint0_linear_1075_31" x1="8.8794" y1="-2.58625" x2="20.6877" y2="20.6373" gradientUnits="userSpaceOnUse">
<stop offset="0.060883" stop-color="white"/>
<stop offset="1" stop-color="#FEBF37"/>
</linearGradient>
</defs>
</svg>
