<svg width="19" height="22" viewBox="0 0 19 22" fill="none" xmlns="http://www.w3.org/2000/svg">
<path d="M9.3459 2.95702L9.27519 2.88631L9.20448 2.95702L4.40683 7.75468L4.23612 7.92539H4.47754H14.0728H14.3143L14.1436 7.75468L9.3459 2.95702ZM4.47754 14.6254H4.23612L4.40683 14.7961L9.20448 19.5938L9.27519 19.6645L9.3459 19.5938L14.1436 14.7961L14.3143 14.6254H14.0728H4.47754ZM1.82663 8.13803L8.72521 1.23945L9.27519 0.713378L9.82518 1.23945L9.82599 1.24023L16.7238 8.13803L16.7244 8.13868L18.0123 9.45039H0.538128L1.82598 8.13868L1.82663 8.13803ZM1.82598 14.4121L0.538128 13.1004H18.0123L16.7244 14.4121L16.7238 14.4128L9.82599 21.3105L9.8244 21.3121L9.27519 21.8374L8.72598 21.3121L8.72439 21.3105L1.82663 14.4128L1.82598 14.4121Z" fill="white" stroke="white" stroke-width="0.2"/>
</svg>
