<svg width="23" height="23" viewBox="0 0 23 23" fill="none" xmlns="http://www.w3.org/2000/svg">
<path d="M21.8499 8.165V3.81416C21.8499 2.46291 21.2366 1.91666 19.7129 1.91666H15.8412C14.3174 1.91666 13.7041 2.46291 13.7041 3.81416V8.15541C13.7041 9.51625 14.3174 10.0529 15.8412 10.0529H19.7129C21.2366 10.0625 21.8499 9.51625 21.8499 8.165Z" stroke="white" stroke-width="1.2" stroke-linecap="round" stroke-linejoin="round"/>
<path d="M21.8499 18.9463V15.0746C21.8499 13.5508 21.2366 12.9375 19.7129 12.9375H15.8412C14.3174 12.9375 13.7041 13.5508 13.7041 15.0746V18.9463C13.7041 20.47 14.3174 21.0833 15.8412 21.0833H19.7129C21.2366 21.0833 21.8499 20.47 21.8499 18.9463Z" stroke="white" stroke-width="1.2" stroke-linecap="round" stroke-linejoin="round"/>
<path d="M10.8289 8.165V3.81416C10.8289 2.46291 10.2156 1.91666 8.69186 1.91666H4.82019C3.29644 1.91666 2.68311 2.46291 2.68311 3.81416V8.15541C2.68311 9.51625 3.29644 10.0529 4.82019 10.0529H8.69186C10.2156 10.0625 10.8289 9.51625 10.8289 8.165Z" stroke="white" stroke-width="1.2" stroke-linecap="round" stroke-linejoin="round"/>
<path d="M10.8289 18.9463V15.0746C10.8289 13.5508 10.2156 12.9375 8.69186 12.9375H4.82019C3.29644 12.9375 2.68311 13.5508 2.68311 15.0746V18.9463C2.68311 20.47 3.29644 21.0833 4.82019 21.0833H8.69186C10.2156 21.0833 10.8289 20.47 10.8289 18.9463Z" stroke="white" stroke-width="1.2" stroke-linecap="round" stroke-linejoin="round"/>
</svg>
