<svg width="23" height="23" viewBox="0 0 23 23" fill="none" xmlns="http://www.w3.org/2000/svg">
<path d="M21.0283 7.7883V4.04027C21.0283 1.97143 21.0283 1.97143 16.0286 1.97143H6.97089C1.97119 1.97143 1.97119 1.97143 1.97119 4.04027V7.7883C1.97119 9.85714 1.97119 9.85714 6.97089 9.85714H16.0286C21.0283 9.85714 21.0283 9.85714 21.0283 7.7883Z" stroke="white" stroke-width="1.2" stroke-linecap="round" stroke-linejoin="round"/>
<path d="M21.0283 18.9597V15.2117C21.0283 13.1429 21.0283 13.1429 16.0286 13.1429H6.97089C1.97119 13.1429 1.97119 13.1429 1.97119 15.2117V18.9597C1.97119 21.0286 1.97119 21.0286 6.97089 21.0286H16.0286C21.0283 21.0286 21.0283 21.0286 21.0283 18.9597Z" stroke="white" stroke-width="1.2" stroke-linecap="round" stroke-linejoin="round"/>
</svg>
