<svg width="39" height="27" viewBox="0 0 39 27" fill="none" xmlns="http://www.w3.org/2000/svg">
<path fill-rule="evenodd" clip-rule="evenodd" d="M5.61415 5.60256C2.49989 8.709 2.49989 13.7455 5.61415 16.852C8.72842 19.9584 13.7777 19.9584 16.8919 16.852C20.0062 13.7455 20.0062 8.709 16.8919 5.60256C13.7777 2.49612 8.72842 2.49612 5.61415 5.60256ZM4.00305 18.459C-0.00101519 14.465 -0.00101519 7.98949 4.00305 3.9955C8.00711 0.00150084 14.499 0.00150084 18.503 3.9955C22.2348 7.71789 22.4886 13.5958 19.2643 17.6114L25.7293 24.0601C26.1742 24.5039 26.1742 25.2234 25.7293 25.6672C25.2844 26.1109 24.5631 26.1109 24.1182 25.6672L17.6532 19.2184C13.6276 22.4346 7.73482 22.1814 4.00305 18.459Z" fill="white"/>
<path fill-rule="evenodd" clip-rule="evenodd" d="M25.9111 10.3182C25.9111 9.94162 26.1491 9.63636 26.4427 9.63636H37.0755C37.3691 9.63636 37.6071 9.94162 37.6071 10.3182C37.6071 10.6947 37.3691 11 37.0755 11H26.4427C26.1491 11 25.9111 10.6947 25.9111 10.3182ZM25.9111 15.7727C25.9111 15.3962 26.1491 15.0909 26.4427 15.0909H37.0755C37.3691 15.0909 37.6071 15.3962 37.6071 15.7727C37.6071 16.1493 37.3691 16.4545 37.0755 16.4545H26.4427C26.1491 16.4545 25.9111 16.1493 25.9111 15.7727ZM25.9111 21.2273C25.9111 20.8507 26.1491 20.5454 26.4427 20.5454H37.0755C37.3691 20.5454 37.6071 20.8507 37.6071 21.2273C37.6071 21.6038 37.3691 21.9091 37.0755 21.9091H26.4427C26.1491 21.9091 25.9111 21.6038 25.9111 21.2273Z" fill="white"/>
<path fill-rule="evenodd" clip-rule="evenodd" d="M5.61415 5.60256C2.49989 8.709 2.49989 13.7455 5.61415 16.852C8.72842 19.9584 13.7777 19.9584 16.8919 16.852C20.0062 13.7455 20.0062 8.709 16.8919 5.60256C13.7777 2.49612 8.72842 2.49612 5.61415 5.60256ZM4.00305 18.459C-0.00101519 14.465 -0.00101519 7.98949 4.00305 3.9955C8.00711 0.00150084 14.499 0.00150084 18.503 3.9955C22.2348 7.71789 22.4886 13.5958 19.2643 17.6114L25.7293 24.0601C26.1742 24.5039 26.1742 25.2234 25.7293 25.6672C25.2844 26.1109 24.5631 26.1109 24.1182 25.6672L17.6532 19.2184C13.6276 22.4346 7.73482 22.1814 4.00305 18.459Z" stroke="white" stroke-linecap="round" stroke-linejoin="round"/>
<path fill-rule="evenodd" clip-rule="evenodd" d="M25.9111 10.3182C25.9111 9.94162 26.1491 9.63636 26.4427 9.63636H37.0755C37.3691 9.63636 37.6071 9.94162 37.6071 10.3182C37.6071 10.6947 37.3691 11 37.0755 11H26.4427C26.1491 11 25.9111 10.6947 25.9111 10.3182ZM25.9111 15.7727C25.9111 15.3962 26.1491 15.0909 26.4427 15.0909H37.0755C37.3691 15.0909 37.6071 15.3962 37.6071 15.7727C37.6071 16.1493 37.3691 16.4545 37.0755 16.4545H26.4427C26.1491 16.4545 25.9111 16.1493 25.9111 15.7727ZM25.9111 21.2273C25.9111 20.8507 26.1491 20.5454 26.4427 20.5454H37.0755C37.3691 20.5454 37.6071 20.8507 37.6071 21.2273C37.6071 21.6038 37.3691 21.9091 37.0755 21.9091H26.4427C26.1491 21.9091 25.9111 21.6038 25.9111 21.2273Z" stroke="white" stroke-linecap="round" stroke-linejoin="round"/>
</svg>
