<svg width="141" height="117" viewBox="0 0 141 117" fill="none" xmlns="http://www.w3.org/2000/svg">
<path d="M114.328 83.2339H49.9062C47.4951 83.2339 45.3676 81.6553 44.6626 79.343L23.8118 10.9956H5.48334C2.45497 10.9956 0 8.53419 0 5.49782C0 2.46145 2.45497 0 5.48334 0H27.8695C30.2806 0 32.4081 1.57866 33.1131 3.88932L53.9639 72.2383H110.684L127.267 32.6681H70.5C67.4717 32.6681 65.0167 30.2066 65.0167 27.1702C65.0167 24.1339 67.4717 21.6724 70.5 21.6724H135.517C137.353 21.6724 139.068 22.5945 140.084 24.1276C141.099 25.6607 141.284 27.6022 140.572 29.3003L119.382 79.8661C118.526 81.9066 116.535 83.2339 114.328 83.2339Z" fill="#BABABA"/>
<path d="M45.2454 117C50.5753 117 54.8961 112.668 54.8961 107.324C54.8961 101.98 50.5753 97.6477 45.2454 97.6477C39.9155 97.6477 35.5947 101.98 35.5947 107.324C35.5947 112.668 39.9155 117 45.2454 117Z" fill="#BABABA"/>
<path d="M116.858 117C122.188 117 126.508 112.668 126.508 107.324C126.508 101.98 122.188 97.6477 116.858 97.6477C111.528 97.6477 107.207 101.98 107.207 107.324C107.207 112.668 111.528 117 116.858 117Z" fill="#BABABA"/>
</svg>
