<svg width="20" height="16" viewBox="0 0 20 16" fill="none" xmlns="http://www.w3.org/2000/svg">
<path d="M5.35714 0C4.38988 0 3.49702 0.228275 2.67857 0.684825C1.86012 1.12754 1.20536 1.72936 0.714286 2.49027C0.238095 3.25119 0 4.08128 0 4.98055C0 5.74146 0.297619 6.53005 0.892857 7.3463C1.1756 7.74751 1.46577 8.07263 1.76339 8.32166L10 16L18.5045 8.07263C18.7277 7.85128 18.936 7.61608 19.1295 7.36706C19.3824 7.02118 19.5833 6.6684 19.7321 6.30869C19.9107 5.85214 20 5.40943 20 4.98055C20 4.08128 19.7545 3.25119 19.2634 2.49027C18.7872 1.72936 18.1399 1.12754 17.3214 0.684825C16.503 0.228275 15.6101 0 14.6429 0C12.9167 0 11.369 0.650238 10 1.95071C8.63095 0.650238 7.08333 0 5.35714 0Z" fill="black"/>
</svg>
