<svg width="31" height="24" viewBox="0 0 31 24" fill="none" xmlns="http://www.w3.org/2000/svg">
<path d="M31 9.85723V10.7144C31 11.4245 30.4217 12.0001 29.7083 12.0001H29.2778L27.8724 21.7922C27.6906 23.059 26.6006 24 25.3151 24H5.68495C4.39936 24 3.30941 23.059 3.12756 21.7922L1.72222 12.0001H1.29167C0.57829 12.0001 0 11.4245 0 10.7144V9.85723C0 9.14715 0.57829 8.57153 1.29167 8.57153H4.91592L10.6628 0.706165C11.2222 -0.0594728 12.2993 -0.228811 13.0685 0.32806C13.8378 0.884932 14.0079 1.95705 13.4484 2.72274L9.17498 8.57153H21.825L17.5516 2.72269C16.9921 1.95705 17.1623 0.884878 17.9315 0.328007C18.7006 -0.228865 19.7778 -0.0595799 20.3373 0.706112L26.0841 8.57153H29.7083C30.4217 8.57153 31 9.14715 31 9.85723ZM16.7917 19.2857V13.2858C16.7917 12.5757 16.2134 12.0001 15.5 12.0001C14.7866 12.0001 14.2083 12.5757 14.2083 13.2858V19.2857C14.2083 19.9958 14.7866 20.5715 15.5 20.5715C16.2134 20.5715 16.7917 19.9958 16.7917 19.2857ZM22.8194 19.2857V13.2858C22.8194 12.5757 22.2412 12.0001 21.5278 12.0001C20.8144 12.0001 20.2361 12.5757 20.2361 13.2858V19.2857C20.2361 19.9958 20.8144 20.5715 21.5278 20.5715C22.2412 20.5715 22.8194 19.9958 22.8194 19.2857ZM10.7639 19.2857V13.2858C10.7639 12.5757 10.1856 12.0001 9.47222 12.0001C8.75885 12.0001 8.18056 12.5757 8.18056 13.2858V19.2857C8.18056 19.9958 8.75885 20.5715 9.47222 20.5715C10.1856 20.5715 10.7639 19.9958 10.7639 19.2857Z" fill="black"/>
</svg>
