<svg width="28" height="23" viewBox="0 0 28 23" fill="none" xmlns="http://www.w3.org/2000/svg">
<path d="M20.2419 3.05176e-05C17.6124 3.05176e-05 15.3655 1.78767 14.131 3.02011C12.8965 1.78767 10.6546 3.05176e-05 8.02637 3.05176e-05C3.49621 3.05176e-05 0.333496 3.01174 0.333496 7.32289C0.333496 12.0732 4.26148 15.1435 8.0615 18.1133C9.8555 19.5169 11.7122 20.9671 13.1361 22.5753C13.3758 22.8445 13.727 23 14.0959 23H14.1686C14.5387 23 14.8887 22.8433 15.1271 22.5753C16.5535 20.9671 18.409 19.5157 20.2042 18.1133C24.003 15.1447 27.9335 12.0744 27.9335 7.32289C27.9335 3.01174 24.7708 3.05176e-05 20.2419 3.05176e-05Z" fill="black"/>
</svg>
