<svg width="21" height="24" viewBox="0 0 21 24" fill="none" xmlns="http://www.w3.org/2000/svg">
<path d="M20.3233 9.50415L11.3284 0.440246C11.2199 0.332435 11.0909 0.246864 10.9487 0.188468C10.8066 0.130071 10.6541 0.100006 10.5001 0.100006C10.3461 0.100006 10.1936 0.130071 10.0514 0.188468C9.90923 0.246864 9.78019 0.332435 9.67174 0.440246L0.676797 9.51565C0.459141 9.73198 0.287243 9.98878 0.171083 10.2711C0.0549226 10.5535 -0.00318472 10.8558 0.000134591 11.1605V20.7995C-0.000769364 21.3883 0.227368 21.9551 0.637567 22.3831C1.04777 22.811 1.60879 23.0676 2.20512 23.1H5.83343V12.7478C5.83343 12.4428 5.95635 12.1502 6.17514 11.9345C6.39393 11.7188 6.69067 11.5976 7.00009 11.5976H14C14.3095 11.5976 14.6062 11.7188 14.825 11.9345C15.0438 12.1502 15.1667 12.4428 15.1667 12.7478V23.1H18.795C19.3913 23.0676 19.9524 22.811 20.3626 22.3831C20.7728 21.9551 21.0009 21.3883 21 20.7995V11.1605C21.0009 10.5427 20.7583 9.94881 20.3233 9.50415Z" fill="black"/>
</svg>
