<svg width="21" height="21" viewBox="0 0 21 21" fill="none" xmlns="http://www.w3.org/2000/svg">
<path d="M19.8499 7.16502V2.81419C19.8499 1.46294 19.2366 0.916687 17.7129 0.916687H13.8412C12.3174 0.916687 11.7041 1.46294 11.7041 2.81419V7.15544C11.7041 8.51627 12.3174 9.05294 13.8412 9.05294H17.7129C19.2366 9.06252 19.8499 8.51627 19.8499 7.16502Z" stroke="black" stroke-width="1.2" stroke-linecap="round" stroke-linejoin="round"/>
<path d="M19.8499 17.9463V14.0746C19.8499 12.5508 19.2366 11.9375 17.7129 11.9375H13.8412C12.3174 11.9375 11.7041 12.5508 11.7041 14.0746V17.9463C11.7041 19.47 12.3174 20.0833 13.8412 20.0833H17.7129C19.2366 20.0833 19.8499 19.47 19.8499 17.9463Z" stroke="black" stroke-width="1.2" stroke-linecap="round" stroke-linejoin="round"/>
<path d="M8.82894 7.16502V2.81419C8.82894 1.46294 8.21561 0.916687 6.69186 0.916687H2.82019C1.29644 0.916687 0.683105 1.46294 0.683105 2.81419V7.15544C0.683105 8.51627 1.29644 9.05294 2.82019 9.05294H6.69186C8.21561 9.06252 8.82894 8.51627 8.82894 7.16502Z" stroke="black" stroke-width="1.2" stroke-linecap="round" stroke-linejoin="round"/>
<path d="M8.82894 17.9463V14.0746C8.82894 12.5508 8.21561 11.9375 6.69186 11.9375H2.82019C1.29644 11.9375 0.683105 12.5508 0.683105 14.0746V17.9463C0.683105 19.47 1.29644 20.0833 2.82019 20.0833H6.69186C8.21561 20.0833 8.82894 19.47 8.82894 17.9463Z" stroke="black" stroke-width="1.2" stroke-linecap="round" stroke-linejoin="round"/>
</svg>
