<svg width="20" height="20" viewBox="0 0 20 20" fill="none" xmlns="http://www.w3.org/2000/svg">
<path d="M7.77643 0C9.18591 0 10.4901 0.35642 11.6889 1.06926C12.8716 1.7497 13.8032 2.68125 14.4836 3.86391C15.1964 5.06278 15.5529 6.36695 15.5529 7.77643C15.5529 8.69988 15.3989 9.58283 15.0911 10.4253C14.7833 11.2515 14.354 12.0049 13.8032 12.6853L20 18.8821L18.8821 20L12.6853 13.8032C12.0049 14.354 11.2515 14.7833 10.4253 15.0911C9.58283 15.3989 8.69988 15.5529 7.77643 15.5529C6.36695 15.5529 5.06278 15.1964 3.86391 14.4836C2.68125 13.8032 1.7497 12.8716 1.06926 11.6889C0.356421 10.4901 0 9.18591 0 7.77643C0 6.36695 0.356421 5.06278 1.06926 3.86391C1.7497 2.68125 2.68125 1.7497 3.86391 1.06926C5.06278 0.35642 6.36695 0 7.77643 0ZM7.77643 1.55529C6.64237 1.55529 5.60551 1.8388 4.66586 2.40583C3.71 2.95666 2.95666 3.71 2.40583 4.66586C1.8388 5.60551 1.55529 6.64236 1.55529 7.77643C1.55529 8.91049 1.8388 9.95545 2.40583 10.9113C2.95666 11.851 3.71 12.6043 4.66586 13.1713C5.60551 13.7222 6.64237 13.9976 7.77643 13.9976C8.91049 13.9976 9.95545 13.7222 10.9113 13.1713C11.851 12.6043 12.6043 11.851 13.1713 10.9113C13.7222 9.95545 13.9976 8.91049 13.9976 7.77643C13.9976 6.64236 13.7222 5.60551 13.1713 4.66586C12.6043 3.71 11.851 2.95666 10.9113 2.40583C9.95545 1.8388 8.91049 1.55529 7.77643 1.55529Z" fill="#8B8B8B"/>
</svg>
