<svg width="42" height="42" viewBox="0 0 42 42" fill="none" xmlns="http://www.w3.org/2000/svg">
<rect x="0.709473" y="0.5" width="39.9411" height="40.4171" rx="16.5" stroke="#F0F0F0"/>
<path d="M28.2998 20.7088C28.2998 21.0496 28.1706 21.3791 27.9291 21.6177C27.6931 21.862 27.3673 21.9983 27.0303 21.9983H21.9522H19.4076H14.3296C13.9925 21.9983 13.6667 21.862 13.4308 21.6177C13.1949 21.3791 13.0601 21.0496 13.0601 20.7088C13.0601 20.3679 13.1949 20.0441 13.4308 19.7999C13.6667 19.5613 13.9925 19.4249 14.3296 19.4249H19.4076H21.9522H27.0303C27.3673 19.4249 27.6931 19.5613 27.9291 19.7999C28.1706 20.0441 28.2998 20.3679 28.2998 20.7088Z" fill="#B3B3B3"/>
</svg>
