<svg width="42" height="42" viewBox="0 0 42 42" fill="none" xmlns="http://www.w3.org/2000/svg">
<rect x="1.20776" y="0.5" width="39.9411" height="40.4171" rx="16.5" stroke="#E2E2E2"/>
<path d="M28.7983 20.7087C28.7983 21.0496 28.6691 21.3791 28.4276 21.6176C28.1917 21.8619 27.8659 21.9983 27.5288 21.9983H22.4508V27.1336C22.4508 27.4745 22.316 27.8039 22.0744 28.0425C21.8385 28.2811 21.5183 28.4175 21.1813 28.4175C20.8442 28.4175 20.5184 28.2811 20.2825 28.0425C20.041 27.8039 19.9061 27.4745 19.9061 27.1336V21.9983H14.8281C14.4911 21.9983 14.1653 21.8619 13.9293 21.6176C13.6934 21.3791 13.5586 21.0496 13.5586 20.7087C13.5586 20.3679 13.6934 20.0441 13.9293 19.7998C14.1653 19.5612 14.4911 19.4249 14.8281 19.4249H19.9061V14.2895C19.9061 13.9487 20.041 13.6192 20.2825 13.3806C20.5184 13.1363 20.8442 13 21.1813 13C21.5183 13 21.8385 13.1363 22.0744 13.3806C22.316 13.6192 22.4508 13.9487 22.4508 14.2895V19.4249H27.5288C27.8659 19.4249 28.1917 19.5612 28.4276 19.7998C28.6691 20.0441 28.7983 20.3679 28.7983 20.7087Z" fill="#53B175"/>
</svg>
