<svg width="18" height="18" viewBox="0 0 18 18" fill="none" xmlns="http://www.w3.org/2000/svg">
<path d="M17.3674 8.34513L15.5233 15.2274L17.0527 15.6372C17.475 15.7503 17.7256 16.1844 17.6125 16.6067C17.4993 17.0291 17.0652 17.2797 16.6429 17.1665L11.6453 15.8274C11.1122 17.0747 9.72958 17.7729 8.38126 17.4116C7.03293 17.0503 6.18463 15.7544 6.34664 14.4077L1.34904 13.0686C0.926711 12.9554 0.676083 12.5213 0.789245 12.099C0.902407 11.6767 1.33651 11.426 1.75883 11.5392L3.28822 11.949L5.1323 5.06676C6.0376 1.68814 9.5104 -0.316883 12.889 0.588416C16.2676 1.49372 18.2727 4.96651 17.3674 8.34513Z" fill="url(#paint0_linear_1075_63)"/>
<defs>
<linearGradient id="paint0_linear_1075_63" x1="4.8794" y1="-3.58625" x2="16.6877" y2="19.6373" gradientUnits="userSpaceOnUse">
<stop offset="0.060883" stop-color="#FBE363"/>
<stop offset="1" stop-color="#FEBF37"/>
</linearGradient>
</defs>
</svg>
