<svg width="39" height="27" viewBox="0 0 39 27" fill="none" xmlns="http://www.w3.org/2000/svg">
<path fill-rule="evenodd" clip-rule="evenodd" d="M5.61415 5.60259C2.49989 8.70903 2.49989 13.7456 5.61415 16.852C8.72842 19.9585 13.7777 19.9585 16.8919 16.852C20.0062 13.7456 20.0062 8.70903 16.8919 5.60259C13.7777 2.49615 8.72842 2.49615 5.61415 5.60259ZM4.00305 18.4591C-0.00101519 14.4651 -0.00101519 7.98952 4.00305 3.99553C8.00711 0.00153136 14.499 0.00153136 18.503 3.99553C22.2348 7.71792 22.4886 13.5958 19.2643 17.6114L25.7293 24.0601C26.1742 24.5039 26.1742 25.2234 25.7293 25.6672C25.2844 26.111 24.5631 26.111 24.1182 25.6672L17.6532 19.2185C13.6276 22.4346 7.73482 22.1815 4.00305 18.4591Z" fill="#151515"/>
<path fill-rule="evenodd" clip-rule="evenodd" d="M25.9111 10.3182C25.9111 9.94165 26.1491 9.63639 26.4427 9.63639H37.0755C37.3691 9.63639 37.6071 9.94165 37.6071 10.3182C37.6071 10.6948 37.3691 11 37.0755 11H26.4427C26.1491 11 25.9111 10.6948 25.9111 10.3182ZM25.9111 15.7727C25.9111 15.3962 26.1491 15.0909 26.4427 15.0909H37.0755C37.3691 15.0909 37.6071 15.3962 37.6071 15.7727C37.6071 16.1493 37.3691 16.4546 37.0755 16.4546H26.4427C26.1491 16.4546 25.9111 16.1493 25.9111 15.7727ZM25.9111 21.2273C25.9111 20.8507 26.1491 20.5455 26.4427 20.5455H37.0755C37.3691 20.5455 37.6071 20.8507 37.6071 21.2273C37.6071 21.6038 37.3691 21.9091 37.0755 21.9091H26.4427C26.1491 21.9091 25.9111 21.6038 25.9111 21.2273Z" fill="#151515"/>
<path fill-rule="evenodd" clip-rule="evenodd" d="M5.61415 5.60259C2.49989 8.70903 2.49989 13.7456 5.61415 16.852C8.72842 19.9585 13.7777 19.9585 16.8919 16.852C20.0062 13.7456 20.0062 8.70903 16.8919 5.60259C13.7777 2.49615 8.72842 2.49615 5.61415 5.60259ZM4.00305 18.4591C-0.00101519 14.4651 -0.00101519 7.98952 4.00305 3.99553C8.00711 0.00153136 14.499 0.00153136 18.503 3.99553C22.2348 7.71792 22.4886 13.5958 19.2643 17.6114L25.7293 24.0601C26.1742 24.5039 26.1742 25.2234 25.7293 25.6672C25.2844 26.111 24.5631 26.111 24.1182 25.6672L17.6532 19.2185C13.6276 22.4346 7.73482 22.1815 4.00305 18.4591Z" stroke="black" stroke-linecap="round" stroke-linejoin="round"/>
<path fill-rule="evenodd" clip-rule="evenodd" d="M25.9111 10.3182C25.9111 9.94165 26.1491 9.63639 26.4427 9.63639H37.0755C37.3691 9.63639 37.6071 9.94165 37.6071 10.3182C37.6071 10.6948 37.3691 11 37.0755 11H26.4427C26.1491 11 25.9111 10.6948 25.9111 10.3182ZM25.9111 15.7727C25.9111 15.3962 26.1491 15.0909 26.4427 15.0909H37.0755C37.3691 15.0909 37.6071 15.3962 37.6071 15.7727C37.6071 16.1493 37.3691 16.4546 37.0755 16.4546H26.4427C26.1491 16.4546 25.9111 16.1493 25.9111 15.7727ZM25.9111 21.2273C25.9111 20.8507 26.1491 20.5455 26.4427 20.5455H37.0755C37.3691 20.5455 37.6071 20.8507 37.6071 21.2273C37.6071 21.6038 37.3691 21.9091 37.0755 21.9091H26.4427C26.1491 21.9091 25.9111 21.6038 25.9111 21.2273Z" stroke="black" stroke-linecap="round" stroke-linejoin="round"/>
</svg>
