<svg width="19" height="22" viewBox="0 0 19 22" fill="none" xmlns="http://www.w3.org/2000/svg">
<path d="M4.47778 14.6253H4.23636L4.40707 14.7961L9.20473 19.5937L9.27544 19.6644L9.34615 19.5937L14.1438 14.7961L14.3145 14.6253H14.0731H4.47778ZM1.82687 8.13798L8.72545 1.23941L9.27544 0.713332L9.82543 1.23941L9.82624 1.24018L16.724 8.13798L16.7246 8.13863L18.0125 9.45034H0.538372L1.82623 8.13863L1.82687 8.13798ZM1.82623 14.4121L0.538372 13.1003H18.0125L16.7246 14.4121L16.724 14.4127L9.82624 21.3105L9.82465 21.3121L9.27544 21.8374L8.72623 21.3121L8.72464 21.3105L1.82687 14.4127L1.82623 14.4121Z" fill="black" stroke="white" stroke-width="0.2"/>
</svg>
